<?xml version="1.0" encoding="UTF-8" standalone="no"?>
<svg
   width="128"
   height="128"
   viewBox="0 0 33.866665 33.866668"
   version="1.1"
   id="svg1010"
   sodipodi:docname="favicon-szn.svg"
   inkscape:version="1.2.2 (b0a8486541, 2022-12-01)"
   xmlns:inkscape="http://www.inkscape.org/namespaces/inkscape"
   xmlns:sodipodi="http://sodipodi.sourceforge.net/DTD/sodipodi-0.dtd"
   xmlns="http://www.w3.org/2000/svg"
   xmlns:svg="http://www.w3.org/2000/svg"
   xmlns:rdf="http://www.w3.org/1999/02/22-rdf-syntax-ns#"
   xmlns:cc="http://creativecommons.org/ns#"
   xmlns:dc="http://purl.org/dc/elements/1.1/">
  <sodipodi:namedview
     id="namedview32"
     pagecolor="#ffffff"
     bordercolor="#000000"
     borderopacity="0.25"
     inkscape:showpageshadow="2"
     inkscape:pageopacity="0.0"
     inkscape:pagecheckerboard="0"
     inkscape:deskcolor="#d1d1d1"
     showgrid="false"
     inkscape:zoom="1.7284352"
     inkscape:cx="137.98608"
     inkscape:cy="162.28551"
     inkscape:window-width="1920"
     inkscape:window-height="1019"
     inkscape:window-x="0"
     inkscape:window-y="0"
     inkscape:window-maximized="1"
     inkscape:current-layer="svg1010" />
  <defs
     id="defs1004" />
  <metadata
     id="metadata1007">
    <rdf:RDF>
      <cc:Work
         rdf:about="">
        <dc:format>image/svg+xml</dc:format>
        <dc:type
           rdf:resource="http://purl.org/dc/dcmitype/StillImage" />
      </cc:Work>
    </rdf:RDF>
  </metadata>
  <g
     id="g4510">
    <rect
       style="fill:#8ebc11;fill-opacity:1;stroke:none;stroke-width:1.06962"
       id="rect414"
       width="33.866665"
       height="33.866665"
       x="0"
       y="0"
       ry="4.6654415" />
    <path
       id="ellipse856"
       style="opacity:0.997;fill:#ffffff;fill-opacity:1;stroke-width:0.109675"
       d="M 17.895548 3.6457723 A 2.7325621 2.3346159 0 0 0 15.162899 5.9805135 A 2.7325621 2.3346159 0 0 0 17.895548 8.3147379 A 2.7325621 2.3346159 0 0 0 20.628198 5.9805135 A 2.7325621 2.3346159 0 0 0 17.895548 3.6457723 z M 9.7668457 4.6338257 A 9.1694888 8.0845099 68.491983 0 0 10.851017 8.2847656 A 9.1694888 8.0845099 68.491983 0 0 10.851017 8.2852823 A 9.1694888 8.0845099 68.491983 0 0 10.859802 8.3023356 A 9.1694888 8.0845099 68.491983 0 0 22.143868 12.534119 A 9.1694888 8.0845099 68.491983 0 0 22.145935 12.533085 L 22.146452 12.533085 A 9.1694888 8.0845099 68.491983 0 0 25.723494 8.1137166 A 10.185313 10.994596 51.045179 0 1 25.721427 8.1152669 A 11.397443 11.735758 24.035453 0 1 24.855847 8.6428833 A 11.397443 11.735758 24.035453 0 1 9.7668457 4.6338257 z M 12.674678 13.170772 A 11.990883 12.103993 0 0 0 4.9676554 16.005225 A 17.187222 15.236806 0 0 1 4.9686889 16.005225 A 16.236192 13.50363 0 0 1 4.9723063 16.004708 A 17.187222 15.236806 0 0 1 6.4693725 15.946313 A 17.187222 15.236806 0 0 1 23.622331 30.220894 A 11.990883 12.103993 0 0 0 24.669812 25.300781 A 16.236192 13.50363 0 0 0 24.669812 25.300264 A 11.990883 12.103993 0 0 0 24.669812 25.299748 A 11.990883 12.103993 0 0 0 24.669812 25.299231 A 11.990883 12.103993 0 0 0 24.669812 25.298714 A 11.990883 12.103993 0 0 0 24.669812 25.298197 A 11.990883 12.103993 0 0 0 24.669812 25.297681 A 11.990883 12.103993 0 0 0 24.669812 25.297164 A 11.990883 12.103993 0 0 0 24.669812 25.296647 A 11.990883 12.103993 0 0 0 24.669812 25.29613 A 11.990883 12.103993 0 0 0 24.669812 25.295613 A 11.990883 12.103993 0 0 0 24.669812 25.295097 A 11.990883 12.103993 0 0 0 24.669812 25.29458 A 11.990883 12.103993 0 0 0 24.669812 25.294063 A 11.990883 12.103993 0 0 0 24.669812 25.293546 A 11.990883 12.103993 0 0 0 24.669812 25.29303 A 11.990883 12.103993 0 0 0 24.669812 25.292513 A 11.990883 12.103993 0 0 0 24.669812 25.291996 A 11.990883 12.103993 0 0 0 24.669812 25.291479 A 11.990883 12.103993 0 0 0 24.669812 25.290963 A 11.990883 12.103993 0 0 0 24.669812 25.290446 A 11.990883 12.103993 0 0 0 24.669812 25.289929 A 11.990883 12.103993 0 0 0 24.669812 25.289412 A 11.990883 12.103993 0 0 0 24.669812 25.288896 A 11.990883 12.103993 0 0 0 24.669812 25.288379 A 11.990883 12.103993 0 0 0 24.669812 25.287862 A 11.990883 12.103993 0 0 0 24.669812 25.287345 A 11.990883 12.103993 0 0 0 24.669812 25.286828 A 11.990883 12.103993 0 0 0 24.669812 25.286312 A 11.990883 12.103993 0 0 0 24.669812 25.285795 A 11.990883 12.103993 0 0 0 24.669812 25.285278 A 11.990883 12.103993 0 0 0 24.669812 25.284761 A 11.990883 12.103993 0 0 0 24.669812 25.284245 A 11.990883 12.103993 0 0 0 24.669812 25.283728 A 11.990883 12.103993 0 0 0 24.669812 25.283211 A 11.990883 12.103993 0 0 0 24.669812 25.282694 A 11.990883 12.103993 0 0 0 24.669812 25.282178 A 11.990883 12.103993 0 0 0 24.669812 25.281661 A 11.990883 12.103993 0 0 0 24.669812 25.281144 A 11.990883 12.103993 0 0 0 24.669812 25.280627 A 11.990883 12.103993 0 0 0 24.669812 25.280111 A 11.990883 12.103993 0 0 0 24.669812 25.279594 A 11.990883 12.103993 0 0 0 24.669812 25.279077 A 11.990883 12.103993 0 0 0 24.669812 25.27856 A 11.990883 12.103993 0 0 0 24.669812 25.278043 A 11.990883 12.103993 0 0 0 24.669812 25.277527 A 11.990883 12.103993 0 0 0 24.669812 25.27701 A 11.990883 12.103993 0 0 0 24.669812 25.276493 A 11.990883 12.103993 0 0 0 24.669812 25.275976 A 11.990883 12.103993 0 0 0 24.669812 25.27546 A 11.990883 12.103993 0 0 0 24.669812 25.274943 A 11.990883 12.103993 0 0 0 12.678813 13.170772 A 11.990883 12.103993 0 0 0 12.674678 13.170772 z M 22.936584 22.03328 A 16.236192 13.50363 0 0 1 22.996012 22.114412 A 16.236192 13.50363 0 0 1 23.030119 22.161955 A 16.236192 13.50363 0 0 0 22.995495 22.114412 A 16.236192 13.50363 0 0 0 22.936584 22.03328 z M 23.498307 22.862687 A 16.236192 13.50363 0 0 1 23.5505 22.947436 A 16.236192 13.50363 0 0 1 23.60166 23.032186 A 16.236192 13.50363 0 0 0 23.549984 22.947436 A 16.236192 13.50363 0 0 0 23.498307 22.862687 z M 24.134961 24.015588 A 16.236192 13.50363 0 0 1 24.1639 24.075016 A 16.236192 13.50363 0 0 1 24.205241 24.163383 A 16.236192 13.50363 0 0 0 24.163383 24.075016 A 16.236192 13.50363 0 0 0 24.134961 24.015588 z M 24.287406 24.341667 A 16.236192 13.50363 0 0 1 24.327197 24.431067 A 16.236192 13.50363 0 0 1 24.354069 24.493595 A 16.236192 13.50363 0 0 0 24.32668 24.431067 A 16.236192 13.50363 0 0 0 24.287406 24.341667 z M 24.514266 24.881168 A 16.236192 13.50363 0 0 1 24.549406 24.971602 A 16.236192 13.50363 0 0 1 24.583512 25.062553 A 16.236192 13.50363 0 0 0 24.548889 24.971602 A 16.236192 13.50363 0 0 0 24.514266 24.881168 z " />
  </g>
</svg>
