<?xml version="1.0" encoding="UTF-8" standalone="no"?>
<svg
   xmlns:dc="http://purl.org/dc/elements/1.1/"
   xmlns:cc="http://creativecommons.org/ns#"
   xmlns:rdf="http://www.w3.org/1999/02/22-rdf-syntax-ns#"
   xmlns:svg="http://www.w3.org/2000/svg"
   xmlns="http://www.w3.org/2000/svg"
   width="500"
   height="339.96399"
   viewBox="0 0 132.29166 89.948808"
   version="1.1"
   id="svg1010">
  <defs
     id="defs1004" />
  <metadata
     id="metadata1007">
    <rdf:RDF>
      <cc:Work
         rdf:about="">
        <dc:format>image/svg+xml</dc:format>
        <dc:type
           rdf:resource="http://purl.org/dc/dcmitype/StillImage" />
        <dc:title></dc:title>
      </cc:Work>
    </rdf:RDF>
  </metadata>
  <g
     id="layer1">
    <g
       id="g2498">
      <g
         aria-label="SPORTZENTRUM"
         id="g926"
         style="font-style:normal;font-weight:normal;font-size:10.5833px;line-height:1.25;font-family:sans-serif;fill:#707173;fill-opacity:1;stroke:none;stroke-width:0.264583"
         transform="matrix(1.1149184,0,0,1.3438758,-13.432524,-112.65443)">
        <g
           id="g2471">
          <g
             aria-label="nord"
             id="text856"
             style="font-style:normal;font-weight:normal;font-size:16.9333px;line-height:1.25;font-family:sans-serif;fill:#717171;fill-opacity:1;stroke:none;stroke-width:0.264583"
             transform="matrix(1.205358,0,0,1,-18.800156,0.3246658)">
            <path
               d="m 65.499726,145.01766 q 0,0.33072 -0.55397,0.33072 -1.372523,0 -1.951298,-1.0914 -0.214974,-0.38861 -0.214974,-0.92604 0,-0.53743 0.157096,-1.0666 0.157096,-0.53743 0.421679,-1.05833 0.264583,-0.5209 0.611848,-1.00872 0.347265,-0.48783 0.735871,-0.90124 0.818553,-0.87643 1.554424,-1.23196 0.198437,-0.0909 0.355533,-0.0909 0.165364,0 0.272851,0.008 0.272851,0.0248 0.405142,0.2067 -0.50436,1.0666 -0.826821,1.9513 1.471742,-1.44694 3.42304,-1.9761 0.636653,-0.17363 1.107941,-0.17363 0.479556,0 0.55397,0.1819 0.07441,0.17363 0.07441,0.32246 0,0.14882 -0.04134,0.40514 -0.04134,0.24804 -0.214974,0.69453 -0.173632,0.44648 -0.355533,0.90123 -0.46302,1.15755 -0.46302,1.57923 0,0.7276 0.520898,0.7276 0.892967,0 1.967834,-1.17408 0.314193,-0.339 0.570507,-0.7276 0.37207,-0.0248 0.37207,0.30592 0,0.26458 -0.338997,0.87643 -0.338997,0.60358 -0.653189,1.05006 -0.305924,0.43822 -0.69453,0.8599 -0.388606,0.42168 -0.851626,0.76067 -1.008722,0.73587 -1.967834,0.73587 -0.959113,0 -1.455206,-0.50436 -0.496093,-0.50436 -0.496093,-1.47174 0,-1.4304 1.488279,-3.42304 0.454751,-0.60358 0.396874,-0.60358 -0.628384,0 -1.769398,0.79375 -1.132745,0.79375 -1.728056,1.68672 -0.380338,1.54615 -0.413411,3.05097 z"
               style="font-style:normal;font-variant:normal;font-weight:normal;font-stretch:normal;font-size:16.9333px;font-family:Molle;-inkscape-font-specification:Molle;fill:#717171;fill-opacity:1;stroke-width:0.264583"
               id="path893" />
            <path
               d="m 75.256217,145.37319 -0.165364,0.008 q -1.306378,0 -1.992639,-0.64492 -0.644921,-0.60358 -0.644921,-1.63711 0,-1.42213 1.132745,-2.72024 1.099673,-1.25677 2.670633,-1.76113 -0.04961,-0.37207 0.272851,-0.61185 0.23151,-0.17363 0.760676,-0.17363 0.537434,0 1.033526,0.0992 0.496093,0.0992 1.000454,0.43821 1.091404,0.71934 1.091404,1.93476 0,1.31465 -0.653189,2.497 1.422133,-0.30592 2.488732,-1.90168 0.37207,-0.0248 0.37207,0.30592 0,0.13229 -0.08268,0.32246 -1.124477,2.67063 -4.497908,3.5388 -1.207159,0.31419 -2.745047,0.31419 z m -0.140559,-3.62148 q 0,0.95911 0.802016,0.95911 0.677994,0 1.364255,-0.81855 0.719335,-0.85162 0.719335,-1.72805 0,-0.89297 -0.859894,-1.18236 -1.48001,0.41341 -1.893421,1.85208 -0.132291,0.43822 -0.132291,0.91777 z"
               style="font-style:normal;font-variant:normal;font-weight:normal;font-stretch:normal;font-size:16.9333px;font-family:Molle;-inkscape-font-specification:Molle;fill:#717171;fill-opacity:1;stroke-width:0.264583"
               id="path895" />
            <path
               d="m 85.161537,140.37092 q -0.992186,-0.0496 -1.686716,-0.2067 -0.851626,1.48001 -1.670179,2.63755 -0.107486,0.17364 -0.487824,0.091 -0.677994,-0.14883 -0.777212,-0.34727 1.471742,-1.03353 2.067053,-2.6541 -0.868162,-0.39687 -0.868162,-1.12447 0,-0.44649 0.587043,-1.14102 0.55397,-0.67799 0.818553,-0.67799 0.810285,0 1.231964,0.41341 0.165364,0.1571 0.165364,0.42168 0,0.25631 -0.281119,0.86816 1.273304,0.62012 3.208066,0.7276 -0.05788,0.57051 -0.479556,0.92604 -0.115755,0.10749 -0.23151,0.10749 -0.587043,0.52917 -0.826821,1.14928 -0.07441,0.19844 -0.07441,0.38034 0,0.76894 0.917771,0.76894 0.620116,0 1.372524,-0.55397 0.669725,-0.50436 1.174086,-1.25676 0.372069,-0.0248 0.372069,0.30592 0,0.28112 -0.347265,0.85989 -0.338996,0.57878 -0.661457,1.00046 -0.32246,0.42168 -0.719334,0.82682 -0.396874,0.40514 -0.843358,0.7276 -1.000454,0.71107 -1.959566,0.71107 -1.628838,0 -2.182808,-1.00872 -0.190169,-0.339 -0.190169,-0.78548 0,-0.45476 0.1819,-0.89297 0.190169,-0.43822 0.51263,-0.85163 0.661457,-0.85989 1.678447,-1.42213 z"
               style="font-style:normal;font-variant:normal;font-weight:normal;font-stretch:normal;font-size:16.9333px;font-family:Molle;-inkscape-font-specification:Molle;fill:#717171;fill-opacity:1;stroke-width:0.264583"
               id="path897" />
            <path
               d="m 96.679158,142.71082 q 0.611848,0 1.364255,-0.55397 0.669725,-0.50436 1.174086,-1.25676 0.380338,-0.0331 0.363802,0.32246 -0.0083,0.28112 -0.347265,0.85162 -0.330729,0.57051 -0.653189,0.99219 -0.32246,0.42168 -0.719335,0.82682 -0.396874,0.40514 -0.843357,0.7276 -1.000454,0.71107 -1.951299,0.71107 -1.215427,0 -1.620569,-0.7276 -0.14056,-0.24805 -0.132292,-0.59532 -0.702798,0.85163 -2.000907,1.19063 -0.438216,0.11575 -0.942577,0.11575 -0.504361,0 -0.926039,-0.15709 -0.413411,-0.16537 -0.711067,-0.45476 -0.611847,-0.60358 -0.611847,-1.6123 0,-1.14101 0.96738,-2.3399 0.950845,-1.19062 2.439123,-1.9513 1.587497,-0.80202 3.24114,-0.80202 0.735871,0 0.653188,0.65319 -1.901688,0 -3.315553,1.02526 -0.620116,0.45475 -0.975649,1.00045 -0.347265,0.54571 -0.347265,1.05834 0,0.95911 0.810285,0.95911 1.165818,0 2.348172,-1.45521 0.413411,-0.51263 0.959113,-1.4304 0.55397,-0.92604 0.901235,-1.50481 0.355533,-0.58705 0.719335,-1.19063 0.372069,-0.61184 0.711066,-1.16581 0.83509,-1.36426 1.033527,-1.63711 0.297655,-0.41341 0.702798,-0.41341 0.471288,0 0.686262,0.339 -0.909504,1.4304 -1.694984,3.03443 -0.78548,1.60403 -1.091404,2.3399 -0.69453,1.67018 -0.69453,2.38952 0,0.71106 0.504361,0.71106 z"
               style="font-style:normal;font-variant:normal;font-weight:normal;font-stretch:normal;font-size:16.9333px;font-family:Molle;-inkscape-font-specification:Molle;fill:#717171;fill-opacity:1;stroke-width:0.264583"
               id="path899" />
          </g>
          <path
             d="m 16.166588,132.55965 q 0,-0.3979 -0.28422,-0.62011 -0.279051,-0.22221 -0.987016,-0.45992 -0.707965,-0.23771 -1.157549,-0.45992 -1.462438,-0.7183 -1.462438,-1.97403 0,-0.62529 0.361734,-1.10071 0.366901,-0.48059 1.033525,-0.74414 0.666624,-0.26871 1.498612,-0.26871 0.811317,0 1.452103,0.28938 0.645953,0.28939 1.00252,0.82682 0.356566,0.53227 0.356566,1.21956 h -1.808669 q 0,-0.45991 -0.28422,-0.71313 -0.279052,-0.25321 -0.759641,-0.25321 -0.485757,0 -0.769976,0.21704 -0.279052,0.21187 -0.279052,0.5426 0,0.28939 0.310057,0.5271 0.310058,0.23254 1.09037,0.48575 0.780311,0.24805 1.281571,0.53744 1.21956,0.70279 1.21956,1.93786 0,0.98701 -0.744138,1.55029 -0.744139,0.56327 -2.041213,0.56327 -0.91467,0 -1.658808,-0.32556 -0.738971,-0.33073 -1.116207,-0.89917 -0.37207,-0.57361 -0.37207,-1.31775 h 1.819005 q 0,0.60462 0.310058,0.894 0.315225,0.28422 1.018022,0.28422 0.449584,0 0.707965,-0.1912 0.263549,-0.19637 0.263549,-0.54777 z"
             style="font-style:normal;font-variant:normal;font-weight:900;font-stretch:normal;font-family:Roboto;-inkscape-font-specification:'Roboto Heavy';fill:#717171;fill-opacity:1;stroke-width:0.264583"
             id="path902" />
          <path
             d="m 20.724435,132.00672 v 2.5528 h -1.813837 v -7.52406 h 3.002391 q 0.862994,0 1.52445,0.32039 0.666624,0.31523 1.028358,0.90434 0.366901,0.58394 0.366901,1.32808 0,1.1007 -0.790647,1.76216 -0.785479,0.65629 -2.160068,0.65629 z m 0,-1.40043 h 1.188554 q 0.527098,0 0.800982,-0.26355 0.279052,-0.26355 0.279052,-0.74414 0,-0.5271 -0.28422,-0.84232 -0.284219,-0.31523 -0.775144,-0.32039 h -1.209224 z"
             style="font-style:normal;font-variant:normal;font-weight:900;font-stretch:normal;font-family:Roboto;-inkscape-font-specification:'Roboto Heavy';fill:#717171;fill-opacity:1;stroke-width:0.264583"
             id="path904" />
          <path
             d="m 32.170728,130.95252 q 0,1.10071 -0.408243,1.9482 -0.408242,0.84749 -1.162716,1.30741 -0.749306,0.45475 -1.710484,0.45475 -0.961179,0 -1.705317,-0.43925 -0.744138,-0.44442 -1.162716,-1.26607 -0.41341,-0.82165 -0.434081,-1.88618 v -0.42375 q 0,-1.10587 0.403075,-1.94819 0.408243,-0.8475 1.162716,-1.30741 0.759641,-0.45992 1.725988,-0.45992 0.956011,0 1.705316,0.45475 0.749306,0.45475 1.162716,1.29707 0.418578,0.83716 0.423746,1.92236 z m -1.844843,-0.31522 q 0,-1.12138 -0.377237,-1.70015 -0.372069,-0.58395 -1.069698,-0.58395 -1.364254,0 -1.441768,2.04638 l -0.0052,0.55294 q 0,1.10587 0.366902,1.70015 0.366901,0.59428 1.090369,0.59428 0.687294,0 1.059363,-0.58394 0.372069,-0.58395 0.377237,-1.67948 z"
             style="font-style:normal;font-variant:normal;font-weight:900;font-stretch:normal;font-family:Roboto;-inkscape-font-specification:'Roboto Heavy';fill:#717171;fill-opacity:1;stroke-width:0.264583"
             id="path906" />
          <path
             d="m 35.901754,131.90336 h -0.981849 v 2.65616 h -1.813837 v -7.52406 h 2.96105 q 1.338416,0 2.092889,0.59428 0.754474,0.59427 0.754474,1.67948 0,0.78548 -0.320393,1.30224 -0.315226,0.51676 -0.992185,0.83715 l 1.570959,3.0334 v 0.0775 h -1.943028 z m -0.981849,-1.40042 h 1.147213 q 0.516763,0 0.775144,-0.26872 0.263549,-0.27388 0.263549,-0.75964 0,-0.48576 -0.263549,-0.75964 -0.263549,-0.27905 -0.775144,-0.27905 h -1.147213 z"
             style="font-style:normal;font-variant:normal;font-weight:900;font-stretch:normal;font-family:Roboto;-inkscape-font-specification:'Roboto Heavy';fill:#717171;fill-opacity:1;stroke-width:0.264583"
             id="path908" />
          <path
             d="m 45.658234,128.43589 h -2.258253 v 6.12363 h -1.813837 v -6.12363 h -2.216911 v -1.40043 h 6.289001 z"
             style="font-style:normal;font-variant:normal;font-weight:900;font-stretch:normal;font-family:Roboto;-inkscape-font-specification:'Roboto Heavy';fill:#717171;fill-opacity:1;stroke-width:0.264583"
             id="path910" />
          <path
             d="m 48.45909,133.16427 h 3.596668 v 1.39525 h -5.860089 v -0.95601 l 3.586333,-5.16762 h -3.607003 v -1.40043 h 5.844585 v 0.93017 z"
             style="font-style:normal;font-variant:normal;font-weight:900;font-stretch:normal;font-family:Roboto;-inkscape-font-specification:'Roboto Heavy';fill:#717171;fill-opacity:1;stroke-width:0.264583"
             id="path912" />
          <path
             d="m 57.543776,131.3711 h -2.85253 v 1.79317 h 3.369293 v 1.39525 h -5.18313 v -7.52406 h 5.193465 v 1.40043 h -3.379628 v 1.58646 h 2.85253 z"
             style="font-style:normal;font-variant:normal;font-weight:900;font-stretch:normal;font-family:Roboto;-inkscape-font-specification:'Roboto Heavy';fill:#717171;fill-opacity:1;stroke-width:0.264583"
             id="path914" />
          <path
             d="m 65.083344,134.55952 h -1.803502 l -2.666496,-4.68187 v 4.68187 h -1.813837 v -7.52406 h 1.813837 l 2.661328,4.68187 v -4.68187 h 1.80867 z"
             style="font-style:normal;font-variant:normal;font-weight:900;font-stretch:normal;font-family:Roboto;-inkscape-font-specification:'Roboto Heavy';fill:#717171;fill-opacity:1;stroke-width:0.264583"
             id="path916" />
          <path
             d="m 71.987292,128.43589 h -2.258253 v 6.12363 h -1.813837 v -6.12363 H 65.69829 v -1.40043 h 6.289002 z"
             style="font-style:normal;font-variant:normal;font-weight:900;font-stretch:normal;font-family:Roboto;-inkscape-font-specification:'Roboto Heavy';fill:#717171;fill-opacity:1;stroke-width:0.264583"
             id="path918" />
          <path
             d="m 75.547786,131.90336 h -0.981849 v 2.65616 H 72.7521 v -7.52406 h 2.961051 q 1.338415,0 2.092888,0.59428 0.754474,0.59427 0.754474,1.67948 0,0.78548 -0.320393,1.30224 -0.315225,0.51676 -0.992184,0.83715 l 1.570958,3.0334 v 0.0775 h -1.943027 z m -0.981849,-1.40042 h 1.147214 q 0.516762,0 0.775144,-0.26872 0.263549,-0.27388 0.263549,-0.75964 0,-0.48576 -0.263549,-0.75964 -0.263549,-0.27905 -0.775144,-0.27905 h -1.147214 z"
             style="font-style:normal;font-variant:normal;font-weight:900;font-stretch:normal;font-family:Roboto;-inkscape-font-specification:'Roboto Heavy';fill:#717171;fill-opacity:1;stroke-width:0.264583"
             id="path920" />
          <path
             d="m 85.557476,127.03546 v 4.92475 q 0,0.83715 -0.356566,1.4521 -0.356566,0.60978 -1.02319,0.93017 -0.666624,0.3204 -1.576126,0.3204 -1.374589,0 -2.165236,-0.71314 -0.790647,-0.71313 -0.80615,-1.95336 v -4.96092 h 1.824172 v 4.9971 q 0.03101,1.23506 1.147214,1.23506 0.563271,0 0.852658,-0.31006 0.289387,-0.31006 0.289387,-1.00769 v -4.91441 z"
             style="font-style:normal;font-variant:normal;font-weight:900;font-stretch:normal;font-family:Roboto;-inkscape-font-specification:'Roboto Heavy';fill:#717171;fill-opacity:1;stroke-width:0.264583"
             id="path922" />
          <path
             d="m 89.071464,127.03546 1.679479,5.23481 1.674311,-5.23481 h 2.387444 v 7.52406 h -1.819005 v -1.75699 l 0.175699,-3.59667 -1.819004,5.35366 h -1.19889 l -1.824172,-5.35882 0.175699,3.60183 v 1.75699 h -1.813837 v -7.52406 z"
             style="font-style:normal;font-variant:normal;font-weight:900;font-stretch:normal;font-family:Roboto;-inkscape-font-specification:'Roboto Heavy';fill:#717171;fill-opacity:1;stroke-width:0.264583"
             id="path924" />
        </g>
      </g>
      <g
         id="g955"
         transform="matrix(1.3438758,0,0,1.3438758,-144.9507,-99.087934)">
        <ellipse
           style="opacity:0.997;fill:#8ebc11;fill-opacity:1;stroke-width:0.276226"
           id="ellipse856"
           cx="186.58434"
           cy="79.612885"
           rx="6.8821907"
           ry="5.8799295" />
        <path
           id="path858"
           style="opacity:0.997;fill:#8ebc11;fill-opacity:1;stroke-width:0.279442"
           d="m 203.64563,128.27331 a 40.892235,34.010044 0 0 0 -0.0496,-0.14159 40.892235,34.010044 0 0 0 -0.0827,-0.22945 40.892235,34.010044 0 0 0 -0.0848,-0.22944 40.892235,34.010044 0 0 0 -0.0868,-0.22893 40.892235,34.010044 0 0 0 -0.0884,-0.22841 40.892235,34.010044 0 0 0 -0.0904,-0.22737 40.892235,34.010044 0 0 0 -0.092,-0.22738 40.892235,34.010044 0 0 0 -0.0946,-0.22686 40.892235,34.010044 0 0 0 -0.0961,-0.22583 40.892235,34.010044 0 0 0 -0.0982,-0.22582 40.892235,34.010044 0 0 0 -0.0997,-0.22479 40.892235,34.010044 0 0 0 -0.10232,-0.2248 40.892235,34.010044 0 0 0 -0.10387,-0.22376 40.892235,34.010044 0 0 0 -0.10542,-0.22324 40.892235,34.010044 0 0 0 -0.10749,-0.22221 40.892235,34.010044 0 0 0 -0.10955,-0.22221 40.892235,34.010044 0 0 0 -0.11162,-0.22117 40.892235,34.010044 0 0 0 -0.11317,-0.22066 40.892235,34.010044 0 0 0 -0.11524,-0.21962 40.892235,34.010044 0 0 0 -0.11679,-0.21963 40.892235,34.010044 0 0 0 -0.11886,-0.21859 40.892235,34.010044 0 0 0 -0.12092,-0.21756 40.892235,34.010044 0 0 0 -0.12247,-0.21704 40.892235,34.010044 0 0 0 -0.12403,-0.21652 40.892235,34.010044 0 0 0 -0.1266,-0.21601 40.892235,34.010044 0 0 0 -0.12764,-0.21497 40.892235,34.010044 0 0 0 -0.13023,-0.21395 40.892235,34.010044 0 0 0 -0.13126,-0.21342 40.892235,34.010044 0 0 0 -0.13384,-0.2129 40.892235,34.010044 0 0 0 -0.13487,-0.21188 40.892235,34.010044 0 0 0 -0.13746,-0.21084 40.892235,34.010044 0 0 0 -0.1385,-0.21032 40.892235,34.010044 0 0 0 -0.14056,-0.20929 40.892235,34.010044 0 0 0 -0.14262,-0.20877 40.892235,34.010044 0 0 0 -0.14418,-0.20774 40.892235,34.010044 0 0 0 -0.14573,-0.20671 40.892235,34.010044 0 0 0 -0.14779,-0.20619 40.892235,34.010044 0 0 0 -0.14935,-0.20515 40.892235,34.010044 0 0 0 -0.15141,-0.20413 40.892235,34.010044 0 0 0 -0.15245,-0.2036 40.892235,34.010044 0 0 0 -0.15503,-0.20257 40.892235,34.010044 0 0 0 -0.15606,-0.20154 40.892235,34.010044 0 0 0 -0.15813,-0.20051 40.892235,34.010044 0 0 0 -0.15968,-0.19998 40.892235,34.010044 0 0 0 -0.16123,-0.19844 40.892235,34.010044 0 0 0 -0.1633,-0.19792 40.892235,34.010044 0 0 0 -0.16484,-0.19689 40.892235,34.010044 0 0 0 -0.1664,-0.19585 40.892235,34.010044 0 0 0 -0.16795,-0.19534 40.892235,34.010044 0 0 0 -0.17001,-0.19378 40.892235,34.010044 0 0 0 -0.17106,-0.19276 40.892235,34.010044 0 0 0 -0.17311,-0.19223 40.892235,34.010044 0 0 0 -0.17467,-0.19069 40.892235,34.010044 0 0 0 -0.17621,-0.18965 40.892235,34.010044 0 0 0 -0.17777,-0.18914 40.892235,34.010044 0 0 0 -0.17932,-0.18759 40.892235,34.010044 0 0 0 -0.18138,-0.18706 40.892235,34.010044 0 0 0 -0.18242,-0.18552 40.892235,34.010044 0 0 0 -0.18397,-0.18449 40.892235,34.010044 0 0 0 -0.18603,-0.18345 40.892235,34.010044 0 0 0 -0.18707,-0.18242 40.892235,34.010044 0 0 0 -0.18914,-0.18138 40.892235,34.010044 0 0 0 -0.19017,-0.18035 40.892235,34.010044 0 0 0 -0.19223,-0.1788 40.892235,34.010044 0 0 0 -0.19327,-0.17828 40.892235,34.010044 0 0 0 -0.19482,-0.17674 40.892235,34.010044 0 0 0 -0.19637,-0.1757 40.892235,34.010044 0 0 0 -0.19792,-0.17415 40.892235,34.010044 0 0 0 -0.19948,-0.17363 40.892235,34.010044 0 0 0 -0.2005,-0.17208 40.892235,34.010044 0 0 0 -0.20257,-0.17105 40.892235,34.010044 0 0 0 -0.20361,-0.1695 40.892235,34.010044 0 0 0 -0.20515,-0.16898 40.892235,34.010044 0 0 0 -0.20671,-0.16743 40.892235,34.010044 0 0 0 -0.20774,-0.16589 40.892235,34.010044 0 0 0 -0.2098,-0.16484 40.892235,34.010044 0 0 0 -0.21084,-0.16382 40.892235,34.010044 0 0 0 -0.21188,-0.16226 40.892235,34.010044 0 0 0 -0.21342,-0.16123 40.892235,34.010044 0 0 0 -0.21497,-0.1602 40.892235,34.010044 0 0 0 -0.21653,-0.15865 40.892235,34.010044 0 0 0 -0.21755,-0.15761 40.892235,34.010044 0 0 0 -0.21911,-0.15606 40.892235,34.010044 0 0 0 -0.22015,-0.15503 40.892235,34.010044 0 0 0 -0.22169,-0.15348 40.892235,34.010044 0 0 0 -0.22272,-0.15193 40.892235,34.010044 0 0 0 -0.22428,-0.15089 40.892235,34.010044 0 0 0 -0.22531,-0.14987 40.892235,34.010044 0 0 0 -0.22686,-0.14831 40.892235,34.010044 0 0 0 -0.22789,-0.14676 40.892235,34.010044 0 0 0 -0.22893,-0.14572 40.892235,34.010044 0 0 0 -0.23047,-0.14418 40.892235,34.010044 0 0 0 -0.23151,-0.14315 40.892235,34.010044 0 0 0 -0.23306,-0.14159 40.892235,34.010044 0 0 0 -0.2341,-0.14004 40.892235,34.010044 0 0 0 -0.23513,-0.13901 40.892235,34.010044 0 0 0 -0.23616,-0.13746 40.892235,34.010044 0 0 0 -0.23771,-0.13591 40.892235,34.010044 0 0 0 -0.23874,-0.13487 40.892235,34.010044 0 0 0 -0.23978,-0.13282 40.892235,34.010044 0 0 0 -0.24082,-0.13229 40.892235,34.010044 0 0 0 -0.24236,-0.13022 40.892235,34.010044 0 0 0 -0.24288,-0.12919 40.892235,34.010044 0 0 0 -0.24443,-0.12712 40.892235,34.010044 0 0 0 -0.24546,-0.1261 40.892235,34.010044 0 0 0 -0.24598,-0.12505 40.892235,34.010044 0 0 0 -0.24753,-0.12299 40.892235,34.010044 0 0 0 -0.24856,-0.12196 40.892235,34.010044 0 0 0 -0.2496,-0.1204 40.892235,34.010044 0 0 0 -0.25063,-0.11886 40.892235,34.010044 0 0 0 -0.25115,-0.11731 40.892235,34.010044 0 0 0 -0.2527,-0.11575 40.892235,34.010044 0 0 0 -0.25373,-0.11472 40.892235,34.010044 0 0 0 -0.25425,-0.11266 40.892235,34.010044 0 0 0 -0.25528,-0.11162 40.892235,34.010044 0 0 0 -0.25631,-0.11007 40.892235,34.010044 0 0 0 -0.25735,-0.108 40.892235,34.010044 0 0 0 -0.25838,-0.10698 40.892235,34.010044 0 0 0 -0.2589,-0.10541 40.892235,34.010044 0 0 0 -0.25993,-0.10387 40.892235,34.010044 0 0 0 -0.26097,-0.10232 40.892235,34.010044 0 0 0 -0.26148,-0.10077 40.892235,34.010044 0 0 0 -0.26252,-0.0992 40.892235,34.010044 0 0 0 -0.26355,-0.0982 40.892235,34.010044 0 0 0 -0.26407,-0.0961 40.892235,34.010044 0 0 0 -0.2651,-0.0946 40.892235,34.010044 0 0 0 -0.26613,-0.093 40.892235,34.010044 0 0 0 -0.26665,-0.0915 40.892235,34.010044 0 0 0 -0.26717,-0.0899 40.892235,34.010044 0 0 0 -0.2682,-0.0884 40.892235,34.010044 0 0 0 -0.26872,-0.0868 40.892235,34.010044 0 0 0 -0.26975,-0.0853 40.892235,34.010044 0 0 0 -0.27027,-0.0837 40.892235,34.010044 0 0 0 -0.27078,-0.0822 40.892235,34.010044 0 0 0 -0.27182,-0.0801 40.892235,34.010044 0 0 0 -0.27233,-0.0791 40.892235,34.010044 0 0 0 -0.27337,-0.0775 40.892235,34.010044 0 0 0 -0.27337,-0.0755 40.892235,34.010044 0 0 0 -0.2744,-0.0739 40.892235,34.010044 0 0 0 -0.27492,-0.0729 40.892235,34.010044 0 0 0 -0.27543,-0.0708 40.892235,34.010044 0 0 0 -0.27647,-0.0692 40.892235,34.010044 0 0 0 -0.27647,-0.0672 40.892235,34.010044 0 0 0 -0.2775,-0.0662 40.892235,34.010044 0 0 0 -0.27751,-0.0641 40.892235,34.010044 0 0 0 -0.27853,-0.063 40.892235,34.010044 0 0 0 -0.27906,-0.061 40.892235,34.010044 0 0 0 -0.27956,-0.0594 40.892235,34.010044 0 0 0 -0.27957,-0.0579 40.892235,34.010044 0 0 0 -0.28061,-0.0563 40.892235,34.010044 0 0 0 -0.2806,-0.0543 40.892235,34.010044 0 0 0 -0.28164,-0.0527 40.892235,34.010044 0 0 0 -0.28163,-0.0512 40.892235,34.010044 0 0 0 -0.28216,-0.0496 40.892235,34.010044 0 0 0 -0.28267,-0.0481 40.892235,34.010044 0 0 0 -0.28318,-0.046 40.892235,34.010044 0 0 0 -0.28319,-0.045 40.892235,34.010044 0 0 0 -0.28371,-0.0429 40.892235,34.010044 0 0 0 -0.28422,-0.0413 40.892235,34.010044 0 0 0 -0.28421,-0.0393 40.892235,34.010044 0 0 0 -0.28526,-0.0377 40.892235,34.010044 0 0 0 -0.28474,-0.0367 40.892235,34.010044 0 0 0 -0.28577,-0.0341 40.892235,34.010044 0 0 0 -0.28525,-0.0331 40.892235,34.010044 0 0 0 -0.28629,-0.031 40.892235,34.010044 0 0 0 -0.28629,-0.03 40.892235,34.010044 0 0 0 -0.28628,-0.0279 40.892235,34.010044 0 0 0 -0.28681,-0.0258 40.892235,34.010044 0 0 0 -0.2868,-0.0248 40.892235,34.010044 0 0 0 -0.28732,-0.0227 40.892235,34.010044 0 0 0 -0.28732,-0.0212 40.892235,34.010044 0 0 0 -0.28732,-0.0191 40.892235,34.010044 0 0 0 -0.28733,-0.0181 40.892235,34.010044 0 0 0 -0.28783,-0.016 40.892235,34.010044 0 0 0 -0.28784,-0.014 40.892235,34.010044 0 0 0 -0.28835,-0.0129 40.892235,34.010044 0 0 0 -0.28784,-0.0109 40.892235,34.010044 0 0 0 -0.28836,-0.009 40.892235,34.010044 0 0 0 -0.28835,-0.008 40.892235,34.010044 0 0 0 -0.28836,-0.006 40.892235,34.010044 0 0 0 -0.28835,-0.005 40.892235,34.010044 0 0 0 -0.28835,-0.003 40.892235,34.010044 0 0 0 -0.28836,-5.3e-4 40.892235,34.010044 0 0 0 -0.20516,5.3e-4 40.892235,34.010044 0 0 0 -0.28835,0.002 40.892235,34.010044 0 0 0 -0.28835,0.004 40.892235,34.010044 0 0 0 -0.28836,0.005 40.892235,34.010044 0 0 0 -0.28835,0.007 40.892235,34.010044 0 0 0 -0.28784,0.009 40.892235,34.010044 0 0 0 -0.28835,0.0109 40.892235,34.010044 0 0 0 -0.28784,0.0119 40.892235,34.010044 0 0 0 -0.28836,0.0139 40.892235,34.010044 0 0 0 -0.28784,0.0155 40.892235,34.010044 0 0 0 -0.28732,0.0176 40.892235,34.010044 0 0 0 -0.28783,0.0186 40.892235,34.010044 0 0 0 -0.28733,0.0207 40.892235,34.010044 0 0 0 -0.2868,0.0222 40.892235,34.010044 0 0 0 -0.28732,0.0243 40.892235,34.010044 0 0 0 -0.2868,0.0253 40.892235,34.010044 0 0 0 -0.28629,0.0274 40.892235,34.010044 0 0 0 -0.28629,0.0295 40.892235,34.010044 0 0 0 -0.28629,0.0305 40.892235,34.010044 0 0 0 -0.28577,0.0326 40.892235,34.010044 0 0 0 -0.28525,0.0341 40.892235,34.010044 0 0 0 -0.28525,0.0357 40.892235,34.010044 0 0 0 -0.28474,0.0372 40.892235,34.010044 0 0 0 -0.28474,0.0393 40.892235,34.010044 0 0 0 -0.28422,0.0408 40.892235,34.010044 0 0 0 -0.2837,0.0424 40.892235,34.010044 0 0 0 -0.28371,0.0439 40.892235,34.010044 0 0 0 -0.28318,0.046 40.892235,34.010044 0 0 0 -0.28267,0.0475 40.892235,34.010044 0 0 0 -0.28216,0.0491 40.892235,34.010044 0 0 0 -0.28215,0.0506 40.892235,34.010044 0 0 0 -0.28112,0.0522 40.892235,34.010044 0 0 0 -0.28112,0.0543 40.892235,34.010044 0 0 0 -0.2806,0.0553 40.892235,34.010044 0 0 0 -0.28009,0.0574 40.892235,34.010044 0 0 0 -0.27957,0.0589 40.892235,34.010044 0 0 0 -0.1602,0.0351 43.287486,38.375195 0 0 1 3.78014,-0.14727 43.287486,38.375195 0 0 1 43.20097,35.95181 30.200063,30.484939 0 0 0 2.63809,-12.39305 z" />
        <path
           id="path923"
           style="opacity:0.997;fill:#b5dff7;fill-opacity:1;stroke-width:0.279442"
           d="m 173.43507,97.722202 a 30.200063,30.484939 0 0 0 -19.41019,7.139618 43.287486,38.375195 0 0 1 0.002,0 40.892235,34.010044 0 0 1 0.1602,-0.0351 40.892235,34.010044 0 0 1 0.27957,-0.0589 40.892235,34.010044 0 0 1 0.28008,-0.0574 40.892235,34.010044 0 0 1 0.28061,-0.0553 40.892235,34.010044 0 0 1 0.28112,-0.0543 40.892235,34.010044 0 0 1 0.28112,-0.0522 40.892235,34.010044 0 0 1 0.28215,-0.0506 40.892235,34.010044 0 0 1 0.28215,-0.0491 40.892235,34.010044 0 0 1 0.28267,-0.0475 40.892235,34.010044 0 0 1 0.28319,-0.046 40.892235,34.010044 0 0 1 0.2837,-0.0439 40.892235,34.010044 0 0 1 0.28371,-0.0424 40.892235,34.010044 0 0 1 0.28422,-0.0408 40.892235,34.010044 0 0 1 0.28473,-0.0393 40.892235,34.010044 0 0 1 0.28474,-0.0372 40.892235,34.010044 0 0 1 0.28526,-0.0357 40.892235,34.010044 0 0 1 0.28525,-0.0341 40.892235,34.010044 0 0 1 0.28577,-0.0326 40.892235,34.010044 0 0 1 0.28629,-0.0305 40.892235,34.010044 0 0 1 0.28629,-0.0295 40.892235,34.010044 0 0 1 0.28628,-0.0274 40.892235,34.010044 0 0 1 0.28681,-0.0253 40.892235,34.010044 0 0 1 0.28732,-0.0243 40.892235,34.010044 0 0 1 0.2868,-0.0222 40.892235,34.010044 0 0 1 0.28732,-0.0207 40.892235,34.010044 0 0 1 0.28784,-0.0186 40.892235,34.010044 0 0 1 0.28732,-0.0176 40.892235,34.010044 0 0 1 0.28784,-0.0155 40.892235,34.010044 0 0 1 0.28835,-0.0139 40.892235,34.010044 0 0 1 0.28784,-0.0119 40.892235,34.010044 0 0 1 0.28836,-0.0109 40.892235,34.010044 0 0 1 0.28783,-0.009 40.892235,34.010044 0 0 1 0.28836,-0.007 40.892235,34.010044 0 0 1 0.28835,-0.005 40.892235,34.010044 0 0 1 0.28836,-0.004 40.892235,34.010044 0 0 1 0.28835,-0.002 40.892235,34.010044 0 0 1 0.20516,-5.3e-4 40.892235,34.010044 0 0 1 0.28835,5.3e-4 40.892235,34.010044 0 0 1 0.28836,0.003 40.892235,34.010044 0 0 1 0.28835,0.005 40.892235,34.010044 0 0 1 0.28836,0.006 40.892235,34.010044 0 0 1 0.28835,0.008 40.892235,34.010044 0 0 1 0.28835,0.009 40.892235,34.010044 0 0 1 0.28784,0.0108 40.892235,34.010044 0 0 1 0.28836,0.0129 40.892235,34.010044 0 0 1 0.28783,0.0139 40.892235,34.010044 0 0 1 0.28784,0.016 40.892235,34.010044 0 0 1 0.28732,0.0181 40.892235,34.010044 0 0 1 0.28732,0.0191 40.892235,34.010044 0 0 1 0.28733,0.0212 40.892235,34.010044 0 0 1 0.28731,0.0227 40.892235,34.010044 0 0 1 0.28681,0.0248 40.892235,34.010044 0 0 1 0.2868,0.0258 40.892235,34.010044 0 0 1 0.28629,0.0279 40.892235,34.010044 0 0 1 0.28629,0.03 40.892235,34.010044 0 0 1 0.28629,0.031 40.892235,34.010044 0 0 1 0.28525,0.0331 40.892235,34.010044 0 0 1 0.28577,0.0341 40.892235,34.010044 0 0 1 0.28474,0.0367 40.892235,34.010044 0 0 1 0.28525,0.0377 40.892235,34.010044 0 0 1 0.28422,0.0393 40.892235,34.010044 0 0 1 0.28422,0.0413 40.892235,34.010044 0 0 1 0.28371,0.0429 40.892235,34.010044 0 0 1 0.28318,0.045 40.892235,34.010044 0 0 1 0.28319,0.046 40.892235,34.010044 0 0 1 0.28267,0.0481 40.892235,34.010044 0 0 1 0.28215,0.0496 40.892235,34.010044 0 0 1 0.28164,0.0512 40.892235,34.010044 0 0 1 0.28164,0.0527 40.892235,34.010044 0 0 1 0.2806,0.0543 40.892235,34.010044 0 0 1 0.2806,0.0563 40.892235,34.010044 0 0 1 0.27957,0.0579 40.892235,34.010044 0 0 1 0.27957,0.0594 40.892235,34.010044 0 0 1 0.27905,0.061 40.892235,34.010044 0 0 1 0.27854,0.063 40.892235,34.010044 0 0 1 0.2775,0.0641 40.892235,34.010044 0 0 1 0.27751,0.0661 40.892235,34.010044 0 0 1 0.27646,0.0672 40.892235,34.010044 0 0 1 0.27647,0.0692 40.892235,34.010044 0 0 1 0.27544,0.0708 40.892235,34.010044 0 0 1 0.27492,0.0729 40.892235,34.010044 0 0 1 0.2744,0.0739 40.892235,34.010044 0 0 1 0.27337,0.0754 40.892235,34.010044 0 0 1 0.27337,0.0775 40.892235,34.010044 0 0 1 0.27233,0.0791 40.892235,34.010044 0 0 1 0.27182,0.0801 40.892235,34.010044 0 0 1 0.27078,0.0822 40.892235,34.010044 0 0 1 0.27027,0.0837 40.892235,34.010044 0 0 1 0.26975,0.0853 40.892235,34.010044 0 0 1 0.26872,0.0868 40.892235,34.010044 0 0 1 0.2682,0.0884 40.892235,34.010044 0 0 1 0.26717,0.0899 40.892235,34.010044 0 0 1 0.26665,0.0915 40.892235,34.010044 0 0 1 0.26613,0.093 40.892235,34.010044 0 0 1 0.2651,0.0946 40.892235,34.010044 0 0 1 0.26407,0.0961 40.892235,34.010044 0 0 1 0.26355,0.0982 40.892235,34.010044 0 0 1 0.26251,0.0992 40.892235,34.010044 0 0 1 0.26149,0.10077 40.892235,34.010044 0 0 1 0.26096,0.10232 40.892235,34.010044 0 0 1 0.25994,0.10387 40.892235,34.010044 0 0 1 0.25889,0.10542 40.892235,34.010044 0 0 1 0.25839,0.10697 40.892235,34.010044 0 0 1 0.25734,0.108 40.892235,34.010044 0 0 1 0.25632,0.11008 40.892235,34.010044 0 0 1 0.25528,0.11162 40.892235,34.010044 0 0 1 0.25425,0.11265 40.892235,34.010044 0 0 1 0.25373,0.11472 40.892235,34.010044 0 0 1 0.2527,0.11576 40.892235,34.010044 0 0 1 0.25114,0.1173 40.892235,34.010044 0 0 1 0.25064,0.11886 40.892235,34.010044 0 0 1 0.24959,0.12041 40.892235,34.010044 0 0 1 0.24857,0.12195 40.892235,34.010044 0 0 1 0.24753,0.12299 40.892235,34.010044 0 0 1 0.24598,0.12506 40.892235,34.010044 0 0 1 0.24546,0.12609 40.892235,34.010044 0 0 1 0.24443,0.12712 40.892235,34.010044 0 0 1 0.24288,0.1292 40.892235,34.010044 0 0 1 0.24236,0.13022 40.892235,34.010044 0 0 1 0.24081,0.13229 40.892235,34.010044 0 0 1 0.23978,0.13281 40.892235,34.010044 0 0 1 0.23875,0.13487 40.892235,34.010044 0 0 1 0.23771,0.13591 40.892235,34.010044 0 0 1 0.23616,0.13746 40.892235,34.010044 0 0 1 0.23513,0.13901 40.892235,34.010044 0 0 1 0.23409,0.14005 40.892235,34.010044 0 0 1 0.23306,0.14159 40.892235,34.010044 0 0 1 0.23151,0.14314 40.892235,34.010044 0 0 1 0.23048,0.14418 40.892235,34.010044 0 0 1 0.22893,0.14573 40.892235,34.010044 0 0 1 0.22789,0.14676 40.892235,34.010044 0 0 1 0.22686,0.14831 40.892235,34.010044 0 0 1 0.22531,0.14986 40.892235,34.010044 0 0 1 0.22427,0.1509 40.892235,34.010044 0 0 1 0.22273,0.15193 40.892235,34.010044 0 0 1 0.22169,0.15348 40.892235,34.010044 0 0 1 0.22014,0.15502 40.892235,34.010044 0 0 1 0.21911,0.15607 40.892235,34.010044 0 0 1 0.21756,0.15761 40.892235,34.010044 0 0 1 0.21652,0.15865 40.892235,34.010044 0 0 1 0.21498,0.16019 40.892235,34.010044 0 0 1 0.21342,0.16123 40.892235,34.010044 0 0 1 0.21187,0.16227 40.892235,34.010044 0 0 1 0.21084,0.16381 40.892235,34.010044 0 0 1 0.20981,0.16485 40.892235,34.010044 0 0 1 0.20774,0.16588 40.892235,34.010044 0 0 1 0.2067,0.16743 40.892235,34.010044 0 0 1 0.20516,0.16899 40.892235,34.010044 0 0 1 0.2036,0.1695 40.892235,34.010044 0 0 1 0.20258,0.17104 40.892235,34.010044 0 0 1 0.2005,0.17209 40.892235,34.010044 0 0 1 0.19947,0.17363 40.892235,34.010044 0 0 1 0.19793,0.17415 40.892235,34.010044 0 0 1 0.19636,0.1757 40.892235,34.010044 0 0 1 0.19482,0.17673 40.892235,34.010044 0 0 1 0.19327,0.17828 40.892235,34.010044 0 0 1 0.19224,0.1788 40.892235,34.010044 0 0 1 0.19017,0.18036 40.892235,34.010044 0 0 1 0.18914,0.18138 40.892235,34.010044 0 0 1 0.18707,0.18242 40.892235,34.010044 0 0 1 0.18603,0.18345 40.892235,34.010044 0 0 1 0.18397,0.18448 40.892235,34.010044 0 0 1 0.18242,0.18552 40.892235,34.010044 0 0 1 0.18138,0.18707 40.892235,34.010044 0 0 1 0.17932,0.18759 40.892235,34.010044 0 0 1 0.17776,0.18913 40.892235,34.010044 0 0 1 0.17622,0.18966 40.892235,34.010044 0 0 1 0.17467,0.19068 40.892235,34.010044 0 0 1 0.17311,0.19224 40.892235,34.010044 0 0 1 0.17105,0.19275 40.892235,34.010044 0 0 1 0.17002,0.19379 40.892235,34.010044 0 0 1 0.16795,0.19533 40.892235,34.010044 0 0 1 0.16639,0.19586 40.892235,34.010044 0 0 1 0.16485,0.19689 40.892235,34.010044 0 0 1 0.1633,0.19791 40.892235,34.010044 0 0 1 0.16123,0.19844 40.892235,34.010044 0 0 1 0.15968,0.19999 40.892235,34.010044 0 0 1 0.15813,0.20051 40.892235,34.010044 0 0 1 0.15606,0.20153 40.892235,34.010044 0 0 1 0.15503,0.20258 40.892235,34.010044 0 0 1 0.15245,0.2036 40.892235,34.010044 0 0 1 0.15141,0.20412 40.892235,34.010044 0 0 1 0.14934,0.20516 40.892235,34.010044 0 0 1 0.1478,0.20619 40.892235,34.010044 0 0 1 0.14573,0.2067 40.892235,34.010044 0 0 1 0.14417,0.20774 40.892235,34.010044 0 0 1 0.14263,0.20877 40.892235,34.010044 0 0 1 0.14056,0.20929 40.892235,34.010044 0 0 1 0.13849,0.21033 40.892235,34.010044 0 0 1 0.13746,0.21084 40.892235,34.010044 0 0 1 0.13488,0.21187 40.892235,34.010044 0 0 1 0.13384,0.21291 40.892235,34.010044 0 0 1 0.13126,0.21342 40.892235,34.010044 0 0 1 0.13022,0.21394 40.892235,34.010044 0 0 1 0.12764,0.21498 40.892235,34.010044 0 0 1 0.12661,0.216 40.892235,34.010044 0 0 1 0.12402,0.21653 40.892235,34.010044 0 0 1 0.12248,0.21704 40.892235,34.010044 0 0 1 0.12092,0.21756 40.892235,34.010044 0 0 1 0.11886,0.21859 40.892235,34.010044 0 0 1 0.11678,0.21962 40.892235,34.010044 0 0 1 0.11524,0.21963 40.892235,34.010044 0 0 1 0.11317,0.22065 40.892235,34.010044 0 0 1 0.11163,0.22118 40.892235,34.010044 0 0 1 0.10955,0.22221 40.892235,34.010044 0 0 1 0.10749,0.22221 40.892235,34.010044 0 0 1 0.10542,0.22324 40.892235,34.010044 0 0 1 0.10387,0.22376 40.892235,34.010044 0 0 1 0.10231,0.22479 40.892235,34.010044 0 0 1 0.0997,0.22479 40.892235,34.010044 0 0 1 0.0982,0.22583 40.892235,34.010044 0 0 1 0.0961,0.22583 40.892235,34.010044 0 0 1 0.0946,0.22685 40.892235,34.010044 0 0 1 0.092,0.22738 40.892235,34.010044 0 0 1 0.0904,0.22738 40.892235,34.010044 0 0 1 0.0884,0.22841 40.892235,34.010044 0 0 1 0.0868,0.22892 40.892235,34.010044 0 0 1 0.0848,0.22945 40.892235,34.010044 0 0 1 0.0827,0.22944 40.892235,34.010044 0 0 1 0.0496,0.14159 30.200063,30.484939 0 0 0 0,-0.0661 30.200063,30.484939 0 0 0 -30.20022,-30.484962 30.200063,30.484939 0 0 0 -0.0103,0 z" />
        <path
           id="path926"
           style="opacity:0.997;fill:#8ebc11;fill-opacity:1;stroke-width:0.199711"
           d="m 168.84169,85.417315 a 25.65258,27.690829 51.045179 0 0 0.0784,0.0791 25.65258,27.690829 51.045179 0 0 0.12836,0.12736 25.65258,27.690829 51.045179 0 0 0.12954,0.12671 25.65258,27.690829 51.045179 0 0 0.13061,0.12568 25.65258,27.690829 51.045179 0 0 0.13137,0.12481 25.65258,27.690829 51.045179 0 0 0.1322,0.12346 25.65258,27.690829 51.045179 0 0 0.13314,0.12294 25.65258,27.690829 51.045179 0 0 0.1345,0.12174 25.65258,27.690829 51.045179 0 0 0.13504,0.12056 25.65258,27.690829 51.045179 0 0 0.13627,0.11988 25.65258,27.690829 51.045179 0 0 0.13681,0.11869 25.65258,27.690829 51.045179 0 0 0.13835,0.11784 25.65258,27.690829 51.045179 0 0 0.13892,0.11663 25.65258,27.690829 51.045179 0 0 0.13965,0.11579 25.65258,27.690829 51.045179 0 0 0.14052,0.11441 25.65258,27.690829 51.045179 0 0 0.14173,0.11374 25.65258,27.690829 51.045179 0 0 0.14261,0.11237 25.65258,27.690829 51.045179 0 0 0.14334,0.11152 25.65258,27.690829 51.045179 0 0 0.14421,0.11015 25.65258,27.690829 51.045179 0 0 0.14512,0.10964 25.65258,27.690829 51.045179 0 0 0.14599,0.10828 25.65258,27.690829 51.045179 0 0 0.14685,0.1069 25.65258,27.690829 51.045179 0 0 0.1476,0.10605 25.65258,27.690829 51.045179 0 0 0.14833,0.10521 25.65258,27.690829 51.045179 0 0 0.14968,0.104 25.65258,27.690829 51.045179 0 0 0.14993,0.10298 25.65258,27.690829 51.045179 0 0 0.15111,0.10145 25.65258,27.690829 51.045179 0 0 0.15153,0.10075 25.65258,27.690829 51.045179 0 0 0.15289,0.0996 25.65258,27.690829 51.045179 0 0 0.15314,0.0985 25.65258,27.690829 51.045179 0 0 0.15431,0.097 25.65258,27.690829 51.045179 0 0 0.15474,0.0963 25.65258,27.690829 51.045179 0 0 0.15561,0.0949 25.65258,27.690829 51.045179 0 0 0.15666,0.0939 25.65258,27.690829 51.045179 0 0 0.1572,0.0927 25.65258,27.690829 51.045179 0 0 0.15777,0.0915 25.65258,27.690829 51.045179 0 0 0.15882,0.0905 25.65258,27.690829 51.045179 0 0 0.15937,0.0893 25.65258,27.690829 51.045179 0 0 0.16024,0.0879 25.65258,27.690829 51.045179 0 0 0.16067,0.0872 25.65258,27.690829 51.045179 0 0 0.16184,0.0857 25.65258,27.690829 51.045179 0 0 0.1621,0.0847 25.65258,27.690829 51.045179 0 0 0.16296,0.0833 25.65258,27.690829 51.045179 0 0 0.1637,0.0824 25.65258,27.690829 51.045179 0 0 0.16408,0.0809 25.65258,27.690829 51.045179 0 0 0.16512,0.0799 25.65258,27.690829 51.045179 0 0 0.16568,0.0787 25.65258,27.690829 51.045179 0 0 0.16624,0.0775 25.65258,27.690829 51.045179 0 0 0.16698,0.0766 25.65258,27.690829 51.045179 0 0 0.16767,0.0749 25.65258,27.690829 51.045179 0 0 0.16792,0.0739 25.65258,27.690829 51.045179 0 0 0.16896,0.0729 25.65258,27.690829 51.045179 0 0 0.16934,0.0713 25.65258,27.690829 51.045179 0 0 0.16991,0.0701 25.65258,27.690829 51.045179 0 0 0.17063,0.0693 25.65258,27.690829 51.045179 0 0 0.17103,0.0677 25.65258,27.690829 51.045179 0 0 0.17206,0.0667 25.65258,27.690829 51.045179 0 0 0.17214,0.0653 25.65258,27.690829 51.045179 0 0 0.1727,0.0641 25.65258,27.690829 51.045179 0 0 0.17356,0.0627 25.65258,27.690829 51.045179 0 0 0.17382,0.0617 25.65258,27.690829 51.045179 0 0 0.17468,0.0603 25.65258,27.690829 51.045179 0 0 0.17494,0.0593 25.65258,27.690829 51.045179 0 0 0.17562,0.0576 25.65258,27.690829 51.045179 0 0 0.17606,0.0569 25.65258,27.690829 51.045179 0 0 0.17643,0.0554 25.65258,27.690829 51.045179 0 0 0.17699,0.0542 25.65258,27.690829 51.045179 0 0 0.17738,0.0526 25.65258,27.690829 51.045179 0 0 0.17811,0.0517 25.65258,27.690829 51.045179 0 0 0.17818,0.0504 25.65258,27.690829 51.045179 0 0 0.17906,0.049 25.65258,27.690829 51.045179 0 0 0.17913,0.0476 25.65258,27.690829 51.045179 0 0 0.17986,0.0468 25.65258,27.690829 51.045179 0 0 0.18024,0.0452 25.65258,27.690829 51.045179 0 0 0.18033,0.0439 25.65258,27.690829 51.045179 0 0 0.18118,0.0425 25.65258,27.690829 51.045179 0 0 0.18144,0.0414 25.65258,27.690829 51.045179 0 0 0.18151,0.0401 25.65258,27.690829 51.045179 0 0 0.18207,0.0389 25.65258,27.690829 51.045179 0 0 0.18264,0.0377 25.65258,27.690829 51.045179 0 0 0.18301,0.0361 25.65258,27.690829 51.045179 0 0 0.18327,0.0351 25.65258,27.690829 51.045179 0 0 0.18364,0.0335 25.65258,27.690829 51.045179 0 0 0.1839,0.0325 25.65258,27.690829 51.045179 0 0 0.18428,0.0309 25.65258,27.690829 51.045179 0 0 0.18436,0.0296 25.65258,27.690829 51.045179 0 0 0.18491,0.0284 25.65258,27.690829 51.045179 0 0 0.18517,0.0273 25.65258,27.690829 51.045179 0 0 0.18554,0.0258 25.65258,27.690829 51.045179 0 0 0.18563,0.0244 25.65258,27.690829 51.045179 0 0 0.18587,0.0234 25.65258,27.690829 51.045179 0 0 0.18626,0.0218 25.65258,27.690829 51.045179 0 0 0.18651,0.0208 25.65258,27.690829 51.045179 0 0 0.18689,0.0192 25.65258,27.690829 51.045179 0 0 0.18696,0.0179 25.65258,27.690829 51.045179 0 0 0.18722,0.0168 25.65258,27.690829 51.045179 0 0 0.18729,0.0155 25.65258,27.690829 51.045179 0 0 0.18768,0.0139 25.65258,27.690829 51.045179 0 0 0.18793,0.0129 25.65258,27.690829 51.045179 0 0 0.18782,0.0112 25.65258,27.690829 51.045179 0 0 0.18826,0.0105 25.65258,27.690829 51.045179 0 0 0.18845,0.009 25.65258,27.690829 51.045179 0 0 0.1884,0.008 25.65258,27.690829 51.045179 0 0 0.18861,0.006 25.65258,27.690829 51.045179 0 0 0.18886,0.005 25.65258,27.690829 51.045179 0 0 0.18881,0.004 25.65258,27.690829 51.045179 0 0 0.18901,0.002 25.65258,27.690829 51.045179 0 0 0.18926,9.8e-4 25.65258,27.690829 51.045179 0 0 0.18934,-3.8e-4 25.65258,27.690829 51.045179 0 0 0.18941,-0.002 25.65258,27.690829 51.045179 0 0 0.18918,-0.003 25.65258,27.690829 51.045179 0 0 0.18956,-0.005 25.65258,27.690829 51.045179 0 0 0.18981,-0.006 25.65258,27.690829 51.045179 0 0 0.18941,-0.007 25.65258,27.690829 51.045179 0 0 0.18966,-0.008 25.65258,27.690829 51.045179 0 0 0.18973,-0.01 25.65258,27.690829 51.045179 0 0 0.18963,-0.0113 25.65258,27.690829 51.045179 0 0 0.18989,-0.0123 25.65258,27.690829 51.045179 0 0 0.18964,-0.0135 25.65258,27.690829 51.045179 0 0 0.18973,-0.0149 25.65258,27.690829 51.045179 0 0 0.1898,-0.0163 25.65258,27.690829 51.045179 0 0 0.18957,-0.0175 25.65258,27.690829 51.045179 0 0 0.18964,-0.0189 25.65258,27.690829 51.045179 0 0 0.1899,-0.0199 25.65258,27.690829 51.045179 0 0 0.18948,-0.0214 25.65258,27.690829 51.045179 0 0 0.18958,-0.0228 25.65258,27.690829 51.045179 0 0 0.18963,-0.0242 25.65258,27.690829 51.045179 0 0 0.18941,-0.0254 25.65258,27.690829 51.045179 0 0 0.18917,-0.0266 25.65258,27.690829 51.045179 0 0 0.18926,-0.028 25.65258,27.690829 51.045179 0 0 0.18902,-0.0292 25.65258,27.690829 51.045179 0 0 0.1891,-0.0306 25.65258,27.690829 51.045179 0 0 0.18886,-0.0318 25.65258,27.690829 51.045179 0 0 0.18864,-0.033 25.65258,27.690829 51.045179 0 0 0.18853,-0.0347 25.65258,27.690829 51.045179 0 0 0.18849,-0.0356 25.65258,27.690829 51.045179 0 0 0.18854,-0.037 25.65258,27.690829 51.045179 0 0 0.18782,-0.0384 25.65258,27.690829 51.045179 0 0 0.18791,-0.0397 25.65258,27.690829 51.045179 0 0 0.18787,-0.0406 25.65258,27.690829 51.045179 0 0 0.18745,-0.0422 25.65258,27.690829 51.045179 0 0 0.1875,-0.0436 25.65258,27.690829 51.045179 0 0 0.18681,-0.0449 25.65258,27.690829 51.045179 0 0 0.18705,-0.046 25.65258,27.690829 51.045179 0 0 0.18635,-0.0474 25.65258,27.690829 51.045179 0 0 0.18658,-0.0484 25.65258,27.690829 51.045179 0 0 0.1862,-0.05 25.65258,27.690829 51.045179 0 0 0.18594,-0.0512 25.65258,27.690829 51.045179 0 0 0.18543,-0.0522 25.65258,27.690829 51.045179 0 0 0.18548,-0.0536 25.65258,27.690829 51.045179 0 0 0.18479,-0.055 25.65258,27.690829 51.045179 0 0 0.18485,-0.0564 25.65258,27.690829 51.045179 0 0 0.18434,-0.0574 25.65258,27.690829 51.045179 0 0 0.18408,-0.0586 25.65258,27.690829 51.045179 0 0 0.18387,-0.0598 25.65258,27.690829 51.045179 0 0 0.18344,-0.0614 25.65258,27.690829 51.045179 0 0 0.1831,-0.0621 25.65258,27.690829 51.045179 0 0 0.18268,-0.0636 25.65258,27.690829 51.045179 0 0 0.18244,-0.0649 25.65258,27.690829 51.045179 0 0 0.18173,-0.0662 25.65258,27.690829 51.045179 0 0 0.1818,-0.0676 25.65258,27.690829 51.045179 0 0 0.18114,-0.0682 25.65258,27.690829 51.045179 0 0 0.18086,-0.0702 25.65258,27.690829 51.045179 0 0 0.1802,-0.0707 25.65258,27.690829 51.045179 0 0 0.18009,-0.0725 25.65258,27.690829 51.045179 0 0 0.17974,-0.0732 25.65258,27.690829 51.045179 0 0 0.17902,-0.0746 25.65258,27.690829 51.045179 0 0 0.17859,-0.0762 25.65258,27.690829 51.045179 0 0 0.17825,-0.0768 25.65258,27.690829 51.045179 0 0 0.17782,-0.0784 25.65258,27.690829 51.045179 0 0 0.17731,-0.0794 25.65258,27.690829 51.045179 0 0 0.17658,-0.0808 25.65258,27.690829 51.045179 0 0 0.17623,-0.0815 25.65258,27.690829 51.045179 0 0 0.17582,-0.0831 25.65258,27.690829 51.045179 0 0 0.17511,-0.0844 25.65258,27.690829 51.045179 0 0 0.17505,-0.0853 25.65258,27.690829 51.045179 0 0 0.17404,-0.0865 25.65258,27.690829 51.045179 0 0 0.1737,-0.088 25.65258,27.690829 51.045179 0 0 0.17334,-0.0886 25.65258,27.690829 51.045179 0 0 0.17266,-0.09 25.65258,27.690829 51.045179 0 0 0.17231,-0.0907 25.65258,27.690829 51.045179 0 0 0.17162,-0.092 25.65258,27.690829 51.045179 0 0 0.17075,-0.0937 25.65258,27.690829 51.045179 0 0 0.12119,-0.0672 25.65258,27.690829 51.045179 0 0 0.16988,-0.0953 25.65258,27.690829 51.045179 0 0 0.1692,-0.0967 25.65258,27.690829 51.045179 0 0 0.16884,-0.0974 25.65258,27.690829 51.045179 0 0 0.16816,-0.0987 25.65258,27.690829 51.045179 0 0 0.16715,-0.0999 25.65258,27.690829 51.045179 0 0 0.16681,-0.10135 25.65258,27.690829 51.045179 0 0 0.16615,-0.10185 25.65258,27.690829 51.045179 0 0 0.16573,-0.10343 25.65258,27.690829 51.045179 0 0 0.16491,-0.10427 25.65258,27.690829 51.045179 0 0 0.16387,-0.10551 25.65258,27.690829 51.045179 0 0 0.16384,-0.10636 25.65258,27.690829 51.045179 0 0 0.1628,-0.1076 25.65258,27.690829 51.045179 0 0 0.16197,-0.10844 25.65258,27.690829 51.045179 0 0 0.16155,-0.11002 25.65258,27.690829 51.045179 0 0 0.16091,-0.11053 25.65258,27.690829 51.045179 0 0 0.15986,-0.11176 25.65258,27.690829 51.045179 0 0 0.15915,-0.11318 25.65258,27.690829 51.045179 0 0 0.15879,-0.11386 25.65258,27.690829 51.045179 0 0 0.15777,-0.1151 25.65258,27.690829 51.045179 0 0 0.15693,-0.11593 25.65258,27.690829 51.045179 0 0 0.15639,-0.11702 25.65258,27.690829 51.045179 0 0 0.15556,-0.11786 25.65258,27.690829 51.045179 0 0 0.15483,-0.11926 25.65258,27.690829 51.045179 0 0 0.15401,-0.12011 25.65258,27.690829 51.045179 0 0 0.15315,-0.12102 25.65258,27.690829 51.045179 0 0 0.15262,-0.12202 25.65258,27.690829 51.045179 0 0 0.1516,-0.12327 25.65258,27.690829 51.045179 0 0 0.15077,-0.12411 25.65258,27.690829 51.045179 0 0 0.14991,-0.12501 25.65258,27.690829 51.045179 0 0 0.14939,-0.12603 25.65258,27.690829 51.045179 0 0 0.14823,-0.12676 25.65258,27.690829 51.045179 0 0 0.1475,-0.12818 25.65258,27.690829 51.045179 0 0 0.14685,-0.12868 25.65258,27.690829 51.045179 0 0 0.14581,-0.12993 25.65258,27.690829 51.045179 0 0 0.14499,-0.13076 25.65258,27.690829 51.045179 0 0 0.0826,-0.0758 28.705434,29.557508 24.035453 0 1 -2.18517,1.33151 28.705434,29.557508 24.035453 0 1 -38.00285,-10.0964 23.09414,20.361528 68.491983 0 0 2.73005,9.19574 z" />
        <path
           id="path928"
           style="opacity:0.997;fill:#b5dff7;fill-opacity:1;stroke-width:0.199711"
           d="m 197.29017,96.116495 a 23.09414,20.361528 68.491983 0 0 9.01041,-11.13054 28.705434,29.557508 24.035453 0 1 -0.001,6.6e-4 25.65258,27.690829 51.045179 0 1 -0.0826,0.0758 25.65258,27.690829 51.045179 0 1 -0.14499,0.13076 25.65258,27.690829 51.045179 0 1 -0.14581,0.12992 25.65258,27.690829 51.045179 0 1 -0.14686,0.12869 25.65258,27.690829 51.045179 0 1 -0.14749,0.12818 25.65258,27.690829 51.045179 0 1 -0.14823,0.12676 25.65258,27.690829 51.045179 0 1 -0.14939,0.12602 25.65258,27.690829 51.045179 0 1 -0.14991,0.12502 25.65258,27.690829 51.045179 0 1 -0.15077,0.12411 25.65258,27.690829 51.045179 0 1 -0.1516,0.12327 25.65258,27.690829 51.045179 0 1 -0.15262,0.12202 25.65258,27.690829 51.045179 0 1 -0.15315,0.12102 25.65258,27.690829 51.045179 0 1 -0.15401,0.12011 25.65258,27.690829 51.045179 0 1 -0.15483,0.11926 25.65258,27.690829 51.045179 0 1 -0.15556,0.11786 25.65258,27.690829 51.045179 0 1 -0.15639,0.11702 25.65258,27.690829 51.045179 0 1 -0.15693,0.11593 25.65258,27.690829 51.045179 0 1 -0.15777,0.1151 25.65258,27.690829 51.045179 0 1 -0.15879,0.11386 25.65258,27.690829 51.045179 0 1 -0.15915,0.11318 25.65258,27.690829 51.045179 0 1 -0.15986,0.11176 25.65258,27.690829 51.045179 0 1 -0.16091,0.11053 25.65258,27.690829 51.045179 0 1 -0.16155,0.11002 25.65258,27.690829 51.045179 0 1 -0.16197,0.10844 25.65258,27.690829 51.045179 0 1 -0.1628,0.1076 25.65258,27.690829 51.045179 0 1 -0.16384,0.10636 25.65258,27.690829 51.045179 0 1 -0.16387,0.10551 25.65258,27.690829 51.045179 0 1 -0.16491,0.10427 25.65258,27.690829 51.045179 0 1 -0.16573,0.10343 25.65258,27.690829 51.045179 0 1 -0.16615,0.10185 25.65258,27.690829 51.045179 0 1 -0.16681,0.10135 25.65258,27.690829 51.045179 0 1 -0.16715,0.0999 25.65258,27.690829 51.045179 0 1 -0.16816,0.0987 25.65258,27.690829 51.045179 0 1 -0.16884,0.0974 25.65258,27.690829 51.045179 0 1 -0.1692,0.0967 25.65258,27.690829 51.045179 0 1 -0.16988,0.0953 25.65258,27.690829 51.045179 0 1 -0.12119,0.0672 25.65258,27.690829 51.045179 0 1 -0.17075,0.0937 25.65258,27.690829 51.045179 0 1 -0.17162,0.092 25.65258,27.690829 51.045179 0 1 -0.17231,0.0907 25.65258,27.690829 51.045179 0 1 -0.17266,0.09 25.65258,27.690829 51.045179 0 1 -0.17334,0.0886 25.65258,27.690829 51.045179 0 1 -0.1737,0.088 25.65258,27.690829 51.045179 0 1 -0.17404,0.0865 25.65258,27.690829 51.045179 0 1 -0.17505,0.0853 25.65258,27.690829 51.045179 0 1 -0.17511,0.0844 25.65258,27.690829 51.045179 0 1 -0.17582,0.0831 25.65258,27.690829 51.045179 0 1 -0.17623,0.0815 25.65258,27.690829 51.045179 0 1 -0.17658,0.0808 25.65258,27.690829 51.045179 0 1 -0.17731,0.0794 25.65258,27.690829 51.045179 0 1 -0.17782,0.0784 25.65258,27.690829 51.045179 0 1 -0.17825,0.0768 25.65258,27.690829 51.045179 0 1 -0.17859,0.0761 25.65258,27.690829 51.045179 0 1 -0.17902,0.0746 25.65258,27.690829 51.045179 0 1 -0.17974,0.0732 25.65258,27.690829 51.045179 0 1 -0.18009,0.0725 25.65258,27.690829 51.045179 0 1 -0.1802,0.0707 25.65258,27.690829 51.045179 0 1 -0.18086,0.0702 25.65258,27.690829 51.045179 0 1 -0.18114,0.0681 25.65258,27.690829 51.045179 0 1 -0.1818,0.0677 25.65258,27.690829 51.045179 0 1 -0.18173,0.0662 25.65258,27.690829 51.045179 0 1 -0.18244,0.0649 25.65258,27.690829 51.045179 0 1 -0.18268,0.0636 25.65258,27.690829 51.045179 0 1 -0.1831,0.0621 25.65258,27.690829 51.045179 0 1 -0.18344,0.0614 25.65258,27.690829 51.045179 0 1 -0.18387,0.0598 25.65258,27.690829 51.045179 0 1 -0.18408,0.0586 25.65258,27.690829 51.045179 0 1 -0.18434,0.0574 25.65258,27.690829 51.045179 0 1 -0.18485,0.0564 25.65258,27.690829 51.045179 0 1 -0.18479,0.055 25.65258,27.690829 51.045179 0 1 -0.18548,0.0536 25.65258,27.690829 51.045179 0 1 -0.18543,0.0522 25.65258,27.690829 51.045179 0 1 -0.18594,0.0512 25.65258,27.690829 51.045179 0 1 -0.1862,0.05 25.65258,27.690829 51.045179 0 1 -0.18658,0.0484 25.65258,27.690829 51.045179 0 1 -0.18635,0.0474 25.65258,27.690829 51.045179 0 1 -0.18705,0.046 25.65258,27.690829 51.045179 0 1 -0.18681,0.0449 25.65258,27.690829 51.045179 0 1 -0.1875,0.0436 25.65258,27.690829 51.045179 0 1 -0.18745,0.0422 25.65258,27.690829 51.045179 0 1 -0.18787,0.0406 25.65258,27.690829 51.045179 0 1 -0.18791,0.0397 25.65258,27.690829 51.045179 0 1 -0.18782,0.0384 25.65258,27.690829 51.045179 0 1 -0.18854,0.037 25.65258,27.690829 51.045179 0 1 -0.18849,0.0356 25.65258,27.690829 51.045179 0 1 -0.18853,0.0348 25.65258,27.690829 51.045179 0 1 -0.18864,0.033 25.65258,27.690829 51.045179 0 1 -0.18886,0.0318 25.65258,27.690829 51.045179 0 1 -0.1891,0.0306 25.65258,27.690829 51.045179 0 1 -0.18902,0.0292 25.65258,27.690829 51.045179 0 1 -0.18926,0.028 25.65258,27.690829 51.045179 0 1 -0.18917,0.0266 25.65258,27.690829 51.045179 0 1 -0.18941,0.0254 25.65258,27.690829 51.045179 0 1 -0.18963,0.0242 25.65258,27.690829 51.045179 0 1 -0.18958,0.0228 25.65258,27.690829 51.045179 0 1 -0.18948,0.0215 25.65258,27.690829 51.045179 0 1 -0.1899,0.0199 25.65258,27.690829 51.045179 0 1 -0.18964,0.0189 25.65258,27.690829 51.045179 0 1 -0.18957,0.0175 25.65258,27.690829 51.045179 0 1 -0.1898,0.0163 25.65258,27.690829 51.045179 0 1 -0.18973,0.0149 25.65258,27.690829 51.045179 0 1 -0.18964,0.0135 25.65258,27.690829 51.045179 0 1 -0.18989,0.0123 25.65258,27.690829 51.045179 0 1 -0.18963,0.0112 25.65258,27.690829 51.045179 0 1 -0.18973,0.01 25.65258,27.690829 51.045179 0 1 -0.18966,0.008 25.65258,27.690829 51.045179 0 1 -0.18941,0.007 25.65258,27.690829 51.045179 0 1 -0.18981,0.006 25.65258,27.690829 51.045179 0 1 -0.18956,0.005 25.65258,27.690829 51.045179 0 1 -0.18918,0.003 25.65258,27.690829 51.045179 0 1 -0.18941,0.002 25.65258,27.690829 51.045179 0 1 -0.18934,3.8e-4 25.65258,27.690829 51.045179 0 1 -0.18926,-9.8e-4 25.65258,27.690829 51.045179 0 1 -0.18901,-0.002 25.65258,27.690829 51.045179 0 1 -0.18881,-0.004 25.65258,27.690829 51.045179 0 1 -0.18886,-0.005 25.65258,27.690829 51.045179 0 1 -0.18861,-0.006 25.65258,27.690829 51.045179 0 1 -0.1884,-0.008 25.65258,27.690829 51.045179 0 1 -0.18845,-0.009 25.65258,27.690829 51.045179 0 1 -0.18826,-0.0105 25.65258,27.690829 51.045179 0 1 -0.18782,-0.0111 25.65258,27.690829 51.045179 0 1 -0.18793,-0.0129 25.65258,27.690829 51.045179 0 1 -0.18768,-0.0139 25.65258,27.690829 51.045179 0 1 -0.18729,-0.0155 25.65258,27.690829 51.045179 0 1 -0.18722,-0.0168 25.65258,27.690829 51.045179 0 1 -0.18696,-0.0179 25.65258,27.690829 51.045179 0 1 -0.18689,-0.0192 25.65258,27.690829 51.045179 0 1 -0.18651,-0.0208 25.65258,27.690829 51.045179 0 1 -0.18626,-0.0218 25.65258,27.690829 51.045179 0 1 -0.18587,-0.0234 25.65258,27.690829 51.045179 0 1 -0.18563,-0.0244 25.65258,27.690829 51.045179 0 1 -0.18554,-0.0258 25.65258,27.690829 51.045179 0 1 -0.18517,-0.0273 25.65258,27.690829 51.045179 0 1 -0.18491,-0.0284 25.65258,27.690829 51.045179 0 1 -0.18436,-0.0296 25.65258,27.690829 51.045179 0 1 -0.18428,-0.031 25.65258,27.690829 51.045179 0 1 -0.1839,-0.0325 25.65258,27.690829 51.045179 0 1 -0.18364,-0.0335 25.65258,27.690829 51.045179 0 1 -0.18327,-0.0351 25.65258,27.690829 51.045179 0 1 -0.18301,-0.0361 25.65258,27.690829 51.045179 0 1 -0.18264,-0.0377 25.65258,27.690829 51.045179 0 1 -0.18207,-0.0389 25.65258,27.690829 51.045179 0 1 -0.18151,-0.0401 25.65258,27.690829 51.045179 0 1 -0.18144,-0.0414 25.65258,27.690829 51.045179 0 1 -0.18118,-0.0425 25.65258,27.690829 51.045179 0 1 -0.18033,-0.0438 25.65258,27.690829 51.045179 0 1 -0.18024,-0.0452 25.65258,27.690829 51.045179 0 1 -0.17986,-0.0468 25.65258,27.690829 51.045179 0 1 -0.17913,-0.0476 25.65258,27.690829 51.045179 0 1 -0.17906,-0.049 25.65258,27.690829 51.045179 0 1 -0.17818,-0.0504 25.65258,27.690829 51.045179 0 1 -0.17811,-0.0517 25.65258,27.690829 51.045179 0 1 -0.17738,-0.0526 25.65258,27.690829 51.045179 0 1 -0.17699,-0.0542 25.65258,27.690829 51.045179 0 1 -0.17643,-0.0554 25.65258,27.690829 51.045179 0 1 -0.17606,-0.0569 25.65258,27.690829 51.045179 0 1 -0.17562,-0.0576 25.65258,27.690829 51.045179 0 1 -0.17494,-0.0593 25.65258,27.690829 51.045179 0 1 -0.17468,-0.0603 25.65258,27.690829 51.045179 0 1 -0.17382,-0.0617 25.65258,27.690829 51.045179 0 1 -0.17356,-0.0627 25.65258,27.690829 51.045179 0 1 -0.1727,-0.0641 25.65258,27.690829 51.045179 0 1 -0.17214,-0.0653 25.65258,27.690829 51.045179 0 1 -0.17206,-0.0667 25.65258,27.690829 51.045179 0 1 -0.17103,-0.0677 25.65258,27.690829 51.045179 0 1 -0.17063,-0.0693 25.65258,27.690829 51.045179 0 1 -0.16991,-0.0701 25.65258,27.690829 51.045179 0 1 -0.16934,-0.0713 25.65258,27.690829 51.045179 0 1 -0.16896,-0.0729 25.65258,27.690829 51.045179 0 1 -0.16792,-0.0739 25.65258,27.690829 51.045179 0 1 -0.16767,-0.0749 25.65258,27.690829 51.045179 0 1 -0.16698,-0.0766 25.65258,27.690829 51.045179 0 1 -0.16624,-0.0775 25.65258,27.690829 51.045179 0 1 -0.16568,-0.0787 25.65258,27.690829 51.045179 0 1 -0.16512,-0.0799 25.65258,27.690829 51.045179 0 1 -0.16408,-0.0809 25.65258,27.690829 51.045179 0 1 -0.1637,-0.0824 25.65258,27.690829 51.045179 0 1 -0.16296,-0.0833 25.65258,27.690829 51.045179 0 1 -0.1621,-0.0847 25.65258,27.690829 51.045179 0 1 -0.16184,-0.0857 25.65258,27.690829 51.045179 0 1 -0.16067,-0.0872 25.65258,27.690829 51.045179 0 1 -0.16024,-0.0879 25.65258,27.690829 51.045179 0 1 -0.15937,-0.0893 25.65258,27.690829 51.045179 0 1 -0.15882,-0.0905 25.65258,27.690829 51.045179 0 1 -0.15777,-0.0915 25.65258,27.690829 51.045179 0 1 -0.1572,-0.0927 25.65258,27.690829 51.045179 0 1 -0.15666,-0.0939 25.65258,27.690829 51.045179 0 1 -0.15561,-0.0949 25.65258,27.690829 51.045179 0 1 -0.15474,-0.0963 25.65258,27.690829 51.045179 0 1 -0.15431,-0.097 25.65258,27.690829 51.045179 0 1 -0.15314,-0.0985 25.65258,27.690829 51.045179 0 1 -0.15289,-0.0996 25.65258,27.690829 51.045179 0 1 -0.15153,-0.10076 25.65258,27.690829 51.045179 0 1 -0.15111,-0.10144 25.65258,27.690829 51.045179 0 1 -0.14993,-0.10298 25.65258,27.690829 51.045179 0 1 -0.14968,-0.104 25.65258,27.690829 51.045179 0 1 -0.14833,-0.10521 25.65258,27.690829 51.045179 0 1 -0.1476,-0.10605 25.65258,27.690829 51.045179 0 1 -0.14685,-0.1069 25.65258,27.690829 51.045179 0 1 -0.14599,-0.10828 25.65258,27.690829 51.045179 0 1 -0.14512,-0.10964 25.65258,27.690829 51.045179 0 1 -0.14421,-0.11015 25.65258,27.690829 51.045179 0 1 -0.14334,-0.11152 25.65258,27.690829 51.045179 0 1 -0.14261,-0.11237 25.65258,27.690829 51.045179 0 1 -0.14174,-0.11374 25.65258,27.690829 51.045179 0 1 -0.14051,-0.11441 25.65258,27.690829 51.045179 0 1 -0.13965,-0.11579 25.65258,27.690829 51.045179 0 1 -0.13892,-0.11663 25.65258,27.690829 51.045179 0 1 -0.13835,-0.11784 25.65258,27.690829 51.045179 0 1 -0.13681,-0.1187 25.65258,27.690829 51.045179 0 1 -0.13627,-0.11987 25.65258,27.690829 51.045179 0 1 -0.13504,-0.12056 25.65258,27.690829 51.045179 0 1 -0.1345,-0.12174 25.65258,27.690829 51.045179 0 1 -0.13314,-0.12294 25.65258,27.690829 51.045179 0 1 -0.1322,-0.12346 25.65258,27.690829 51.045179 0 1 -0.13137,-0.12481 25.65258,27.690829 51.045179 0 1 -0.13061,-0.12568 25.65258,27.690829 51.045179 0 1 -0.12954,-0.12671 25.65258,27.690829 51.045179 0 1 -0.12836,-0.12737 25.65258,27.690829 51.045179 0 1 -0.0784,-0.0791 23.09414,20.361528 68.491983 0 0 0.0229,0.0445 23.09414,20.361528 68.491983 0 0 28.41946,10.65806 23.09414,20.361528 68.491983 0 0 0.006,-0.003 z" />
      </g>
    </g>
  </g>
</svg>
